<!DOCTYPE svg PUBLIC "-//W3C//DTD SVG 1.1//EN" "http://www.w3.org/Graphics/SVG/1.1/DTD/svg11.dtd">
<!-- Uploaded to: SVG Repo, www.svgrepo.com, Transformed by: SVG Repo Mixer Tools -->
<svg fill="#ffffff" height="800px" width="800px" version="1.1" id="Layer_1" xmlns="http://www.w3.org/2000/svg" xmlns:xlink="http://www.w3.org/1999/xlink" viewBox="-117.97 -117.97 727.47 727.47" xml:space="preserve" stroke="#ffffff" stroke-width="0.00491526">
<g id="SVGRepo_bgCarrier" stroke-width="0" transform="translate(12.288150000000002,12.288150000000002), scale(0.95)">
<rect x="-117.97" y="-117.97" width="727.47" height="727.47" rx="363.735" fill="#2194ba" strokewidth="0"/>
</g>
<g id="SVGRepo_tracerCarrier" stroke-linecap="round" stroke-linejoin="round"/>
<g id="SVGRepo_iconCarrier"> <g> <g> <g> <path d="M143.36,102.403c-11.305,0-20.48,9.195-20.48,20.48s9.175,20.48,20.48,20.48c11.305,0,20.48-9.196,20.48-20.48 S154.665,102.403,143.36,102.403z"/> <path d="M491.52,20.483c0-11.305-9.155-20.48-20.48-20.48H20.48C9.155,0.003,0,9.178,0,20.483v266.24h491.52V20.483z M143.36,184.323c-33.874,0-61.44-27.566-61.44-61.44s27.566-61.44,61.44-61.44c33.874,0,61.44,27.566,61.44,61.44 S177.234,184.323,143.36,184.323z M424.079,96.402l-34.959,34.959v73.441c0,11.305-9.155,20.48-20.48,20.48 s-20.48-9.175-20.48-20.48v-32.481l-67.441,67.441c-3.994,3.994-9.236,6.001-14.479,6.001c-5.243,0-10.486-2.007-14.479-6.001 l-40.96-40.96c-8.008-8.008-8.008-20.951,0-28.959s20.951-8.008,28.959,0l26.481,26.481l52.961-52.961H286.72 c-11.326,0-20.48-9.175-20.48-20.48c0-11.305,9.155-20.48,20.48-20.48h73.441l34.959-34.959c8.008-8.008,20.951-8.008,28.959,0 C432.087,75.451,432.087,88.395,424.079,96.402z"/> <path d="M0.006,327.683v61.44c0,11.305,9.155,20.48,20.48,20.48h152.453c-1.823,13.107-7.004,27.443-11.796,31.007 l-13.844,10.281c-7.885,5.734-11.162,15.872-8.11,25.19c2.99,9.236,11.469,15.442,21.115,15.442h170.762 c9.626,0,18.104-6.185,21.115-15.38c3.031-9.318-0.205-19.436-7.946-25.108l-13.988-10.424 c-4.772-3.523-9.912-17.879-11.694-31.007h152.494c11.305,0,20.48-9.175,20.48-20.48v-61.44H0.006z M203.229,450.563 c6.042-12.431,9.81-27.197,10.977-40.96h63.099c1.126,13.763,4.895,28.549,10.895,40.96H203.229z"/> </g> </g> </g> </g>
</svg>